# xmcd
#
# Track frame offsets: 
#        150
#        12402
#        23373
#        34391
#        44204
#        55811
#        69274
#        81245
#        93878
#        104403
#        115929
#        127906
#        138940
#        151925
#        166335
#        180279
#        193907
#        207284
#        219101
#        231209
#        244400
#        256138
#        267248
#        280942
#        291551
#        301593
#        312942
#        325737
#        338324
#
# Disc length: 4671 seconds
#
# Revision: 0
# Processed by: cddbd v1.5.2PL0 Copyright (c) Steve Scherf et al.
# Submitted via: ExactAudioCopy v0.95b3
#
DISCID=91123d1d
DTITLE=Terrell, Tammi - The Story Of
DYEAR=1900
DGENRE=R&B
TTITLE0=Sinner's Devotion
TTITLE1=Make The Night Just A Little Longer
TTITLE2=It's Mine
TTITLE3=Voice Of Experience
TTITLE4=Big John
TTITLE5=If You See Bill
TTITLE6=If I Would Marry You
TTITLE7=I Cried
TTITLE8=Come And See Me
TTITLE9=I Can't Believe You Love Me
TTITLE10=Hold Me Oh My Darling
TTITLE11=This Old Heart Of Mine
TTITLE12=Baby Don't You Worry
TTITLE13=There Are Things
TTITLE14=That's What Boys Are Made For
TTITLE15=What A Good Man He Is
TTITLE16=Tears At The End Of A Love Affair
TTITLE17=He's The One I Love
TTITLE18=Can't Stop Now Love Is Calling
TTITLE19=Just Too Much To Hope For
TTITLE20=I Can't Go On Without You
TTITLE21=Ain't No Mountain High Enough
TTITLE22=Your Precious Love
TTITLE23=If I Could Build My Whole World Around You
TTITLE24=Two Can Have A Party
TTITLE25=Keep On Loving Me Honey
TTITLE26=You're All I Need To Get By
TTITLE27=I Can't Help But Love You
TTITLE28=This Poor Heart Of Mine
EXTD=
EXTT0=
EXTT1=
EXTT2=
EXTT3=
EXTT4=
EXTT5=
EXTT6=
EXTT7=
EXTT8=
EXTT9=
EXTT10=
EXTT11=
EXTT12=
EXTT13=
EXTT14=
EXTT15=
EXTT16=
EXTT17=
EXTT18=
EXTT19=
EXTT20=
EXTT21=
EXTT22=
EXTT23=
EXTT24=
EXTT25=
EXTT26=
EXTT27=
EXTT28=
PLAYORDER=
